<svg height="320" width="632" xmlns="http://www.w3.org/2000/svg">
    <style>line, path, circle,rect,polygon {
                          stroke: black;
                          stroke-width: 2;
                          stroke-opacity: 1;
                          fill-opacity: 1;
                          stroke-linecap: round;
                          stroke-linejoin: miter;
                        }

                    text {
                        fill: black;
                        }
                        rect.backdrop{
                            stroke: none;
                            fill: white;
                        }
                        .broken{
                            stroke-dasharray: 8;
                        }
                        .filled{
                            fill: black;
                        }
                        .bg_filled{
                            fill: white;
                        }
                        .nofill{
                            fill: white;
                        }

                        text {
                         font-family: monospace;
                         font-size: 14px;
                        }

                        .end_marked_arrow{
                            marker-end: url(#arrow);
                         }
                        .start_marked_arrow{
                            marker-start: url(#arrow);
                         }

                        .end_marked_diamond{
                            marker-end: url(#diamond);
                         }
                        .start_marked_diamond{
                            marker-start: url(#diamond);
                         }

                        .end_marked_circle{
                            marker-end: url(#circle);
                         }
                        .start_marked_circle{
                            marker-start: url(#circle);
                         }

                        .end_marked_open_circle{
                            marker-end: url(#open_circle);
                         }
                        .start_marked_open_circle{
                            marker-start: url(#open_circle);
                         }

                        .end_marked_big_open_circle{
                            marker-end: url(#big_open_circle);
                         }
                        .start_marked_big_open_circle{
                            marker-start: url(#big_open_circle);
                         }

                         
                        </style>
    <defs>
        <marker id="arrow" markerHeight="7" markerWidth="7" orient="auto-start-reverse" refX="4" refY="2" viewBox="-2 -2 8 8">
            <polygon points="0,0 0,4 4,2 0,0"></polygon>
        </marker>
        <marker id="diamond" markerHeight="7" markerWidth="7" orient="auto-start-reverse" refX="4" refY="2" viewBox="-2 -2 8 8">
            <polygon points="0,2 2,0 4,2 2,4 0,2"></polygon>
        </marker>
        <marker id="circle" markerHeight="7" markerWidth="7" orient="auto-start-reverse" refX="4" refY="4" viewBox="0 0 8 8">
            <circle class="filled" cx="4" cy="4" r="2"></circle>
        </marker>
        <marker id="open_circle" markerHeight="7" markerWidth="7" orient="auto-start-reverse" refX="4" refY="4" viewBox="0 0 8 8">
            <circle class="bg_filled" cx="4" cy="4" r="2"></circle>
        </marker>
        <marker id="big_open_circle" markerHeight="7" markerWidth="7" orient="auto-start-reverse" refX="4" refY="4" viewBox="0 0 8 8">
            <circle class="bg_filled" cx="4" cy="4" r="3"></circle>
        </marker>
    </defs>
    <rect class="backdrop" height="320" width="632" x="0" y="0"></rect>
    <rect class="solid nofill " height="32" rx="4" width="72" x="4" y="8"></rect>
    <text class="" x="18" y="28">$PART1</text>
    <rect class="solid nofill " height="32" rx="4" width="72" x="276" y="8"></rect>
    <text class="" x="290" y="28">$CHAMP</text>
    <rect class="solid nofill " height="32" rx="4" width="72" x="548" y="8"></rect>
    <text class="" x="562" y="28">$PART5</text>
    <rect class="solid nofill " height="32" rx="4" width="72" x="4" y="104"></rect>
    <text class="" x="18" y="124">$PART2</text>
    <rect class="solid nofill " height="32" rx="4" width="72" x="548" y="104"></rect>
    <text class="" x="562" y="124">$PART6</text>
    <rect class="solid nofill " height="32" rx="4" width="72" x="4" y="168"></rect>
    <text class="" x="18" y="188">$PART3</text>
    <rect class="solid nofill " height="32" rx="4" width="72" x="548" y="168"></rect>
    <text class="" x="562" y="188">$PART7</text>
    <rect class="solid nofill " height="32" rx="4" width="72" x="4" y="264"></rect>
    <text class="" x="18" y="284">$PART4</text>
    <rect class="solid nofill " height="32" rx="4" width="72" x="548" y="264"></rect>
    <text class="" x="562" y="284">$PART8</text>
    <text class="" x="138" y="76">$SEMI1</text>
    <text class="" x="434" y="76">$SEMI3</text>
    <text class="" x="218" y="156">$FINL1</text>
    <text class="" x="354" y="156">$FINL2</text>
    <text class="" x="138" y="236">$SEMI2</text>
    <text class="" x="434" y="236">$SEMI4</text>
    <g>
        <line class="solid" x1="36" x2="36" y1="48" y2="96"></line>
        <path class="nofill" d="M 128,56 A 4,4 0,0,0 124,60"></path>
        <line class="solid" x1="124" x2="124" y1="60" y2="84"></line>
        <line class="solid" x1="128" x2="192" y1="56" y2="56"></line>
        <path class="nofill" d="M 192,56 A 4,4 0,0,1 196,60"></path>
        <line class="solid" x1="196" x2="196" y1="60" y2="84"></line>
        <line class="solid" x1="36" x2="124" y1="72" y2="72"></line>
        <path class="nofill" d="M 124,84 A 4,4 0,0,0 128,88"></path>
        <line class="solid" x1="128" x2="192" y1="88" y2="88"></line>
        <path class="nofill" d="M 196,84 A 4,4 0,0,1 192,88"></path>
    </g>
    <g>
        <line class="solid" x1="308" x2="308" y1="48" y2="152"></line>
        <path class="nofill" d="M 344,136 A 4,4 0,0,0 340,140"></path>
        <line class="solid" x1="340" x2="340" y1="140" y2="164"></line>
        <line class="solid" x1="344" x2="408" y1="136" y2="136"></line>
        <path class="nofill" d="M 408,136 A 4,4 0,0,1 412,140"></path>
        <line class="solid" x1="412" x2="412" y1="140" y2="164"></line>
        <line class="solid" x1="276" x2="340" y1="152" y2="152"></line>
        <line class="solid" x1="412" x2="460" y1="152" y2="152"></line>
        <path class="nofill" d="M 340,164 A 4,4 0,0,0 344,168"></path>
        <line class="solid" x1="344" x2="408" y1="168" y2="168"></line>
        <path class="nofill" d="M 412,164 A 4,4 0,0,1 408,168"></path>
        <line class="solid" x1="156" x2="156" y1="96" y2="208"></line>
        <path class="nofill" d="M 208,136 A 4,4 0,0,0 204,140"></path>
        <line class="solid" x1="204" x2="204" y1="140" y2="164"></line>
        <line class="solid" x1="208" x2="272" y1="136" y2="136"></line>
        <path class="nofill" d="M 272,136 A 4,4 0,0,1 276,140"></path>
        <line class="solid" x1="276" x2="276" y1="140" y2="164"></line>
        <line class="solid" x1="156" x2="204" y1="152" y2="152"></line>
        <path class="nofill" d="M 204,164 A 4,4 0,0,0 208,168"></path>
        <line class="solid" x1="208" x2="272" y1="168" y2="168"></line>
        <path class="nofill" d="M 276,164 A 4,4 0,0,1 272,168"></path>
        <line class="solid" x1="460" x2="460" y1="96" y2="208"></line>
    </g>
    <g>
        <path class="nofill" d="M 424,56 A 4,4 0,0,0 420,60"></path>
        <line class="solid" x1="420" x2="420" y1="60" y2="84"></line>
        <line class="solid" x1="424" x2="488" y1="56" y2="56"></line>
        <path class="nofill" d="M 488,56 A 4,4 0,0,1 492,60"></path>
        <line class="solid" x1="492" x2="492" y1="60" y2="84"></line>
        <path class="nofill" d="M 420,84 A 4,4 0,0,0 424,88"></path>
        <line class="solid" x1="424" x2="488" y1="88" y2="88"></line>
        <path class="nofill" d="M 492,84 A 4,4 0,0,1 488,88"></path>
        <line class="solid" x1="580" x2="580" y1="48" y2="96"></line>
        <line class="solid" x1="492" x2="580" y1="72" y2="72"></line>
    </g>
    <g>
        <line class="solid" x1="36" x2="36" y1="208" y2="256"></line>
        <path class="nofill" d="M 128,216 A 4,4 0,0,0 124,220"></path>
        <line class="solid" x1="124" x2="124" y1="220" y2="244"></line>
        <line class="solid" x1="128" x2="192" y1="216" y2="216"></line>
        <path class="nofill" d="M 192,216 A 4,4 0,0,1 196,220"></path>
        <line class="solid" x1="196" x2="196" y1="220" y2="244"></line>
        <line class="solid" x1="36" x2="124" y1="232" y2="232"></line>
        <path class="nofill" d="M 124,244 A 4,4 0,0,0 128,248"></path>
        <line class="solid" x1="128" x2="192" y1="248" y2="248"></line>
        <path class="nofill" d="M 196,244 A 4,4 0,0,1 192,248"></path>
    </g>
    <g>
        <path class="nofill" d="M 424,216 A 4,4 0,0,0 420,220"></path>
        <line class="solid" x1="420" x2="420" y1="220" y2="244"></line>
        <line class="solid" x1="424" x2="488" y1="216" y2="216"></line>
        <path class="nofill" d="M 488,216 A 4,4 0,0,1 492,220"></path>
        <line class="solid" x1="492" x2="492" y1="220" y2="244"></line>
        <path class="nofill" d="M 420,244 A 4,4 0,0,0 424,248"></path>
        <line class="solid" x1="424" x2="488" y1="248" y2="248"></line>
        <path class="nofill" d="M 492,244 A 4,4 0,0,1 488,248"></path>
        <line class="solid" x1="580" x2="580" y1="208" y2="256"></line>
        <line class="solid" x1="492" x2="580" y1="232" y2="232"></line>
    </g>
</svg>